<svg width="16" height="17" viewBox="0 0 16 17" fill="none" xmlns="http://www.w3.org/2000/svg">
<path d="M5.58685 6.40211C6.05085 7.36853 6.68337 8.27429 7.48443 9.07534C8.28548 9.87639 9.19124 10.5089 10.1577 10.9729C10.2408 11.0128 10.2823 11.0328 10.3349 11.0481C10.5218 11.1026 10.7513 11.0635 10.9096 10.9501C10.9542 10.9182 10.9923 10.8801 11.0685 10.8039C11.3016 10.5708 11.4181 10.4543 11.5353 10.3781C11.9772 10.0908 12.5469 10.0908 12.9889 10.3781C13.106 10.4543 13.2226 10.5708 13.4556 10.8039L13.5856 10.9338C13.9398 11.2881 14.117 11.4653 14.2132 11.6555C14.4046 12.0339 14.4046 12.4807 14.2132 12.8591C14.117 13.0494 13.9399 13.2265 13.5856 13.5808L13.4805 13.6859C13.1274 14.039 12.9508 14.2155 12.7108 14.3504C12.4445 14.5 12.0308 14.6075 11.7253 14.6066C11.45 14.6058 11.2619 14.5524 10.8856 14.4456C8.86333 13.8716 6.95509 12.7886 5.36311 11.1967C3.77112 9.60467 2.68814 7.69643 2.11416 5.67417C2.00735 5.29787 1.95395 5.10972 1.95313 4.83442C1.95222 4.52894 2.0598 4.11528 2.20941 3.84894C2.34424 3.60892 2.52078 3.43238 2.87386 3.0793L2.97895 2.97421C3.33325 2.61992 3.5104 2.44277 3.70065 2.34654C4.07903 2.15516 4.52587 2.15516 4.90424 2.34654C5.0945 2.44277 5.27164 2.61991 5.62594 2.97421L5.75585 3.10412C5.98892 3.33719 6.10546 3.45373 6.18165 3.57091C6.46898 4.01284 6.46898 4.58256 6.18165 5.02449C6.10546 5.14167 5.98892 5.25821 5.75585 5.49128C5.67964 5.56749 5.64154 5.60559 5.60965 5.65013C5.4963 5.80842 5.45717 6.03793 5.51165 6.22483C5.52698 6.27742 5.54694 6.31899 5.58685 6.40211Z" stroke="#AE7029" stroke-width="2" stroke-linecap="round" stroke-linejoin="round"/>
</svg>
