<svg width="25" height="24" viewBox="0 0 25 24" fill="none" xmlns="http://www.w3.org/2000/svg">
<path d="M8.53506 8.85323C9.23106 10.3028 10.1798 11.6615 11.3814 12.8631C12.583 14.0646 13.9416 15.0134 15.3913 15.7094C15.516 15.7693 15.5783 15.7992 15.6572 15.8222C15.9375 15.904 16.2818 15.8453 16.5192 15.6752C16.586 15.6274 16.6432 15.5702 16.7575 15.4559C17.1071 15.1063 17.2819 14.9315 17.4577 14.8172C18.1206 14.3862 18.9752 14.3862 19.6381 14.8172C19.8138 14.9315 19.9886 15.1063 20.3383 15.4559L20.5331 15.6508C21.0646 16.1822 21.3303 16.448 21.4746 16.7333C21.7617 17.3009 21.7617 17.9712 21.4746 18.5387C21.3303 18.8241 21.0646 19.0898 20.5331 19.6213L20.3755 19.7789C19.8459 20.3085 19.5811 20.5733 19.221 20.7756C18.8215 21 18.201 21.1614 17.7428 21.16C17.3299 21.1588 17.0476 21.0787 16.4832 20.9185C13.4498 20.0575 10.5874 18.433 8.19945 16.045C5.81146 13.6571 4.18699 10.7947 3.32602 7.76131C3.16581 7.19687 3.08571 6.91464 3.08448 6.5017C3.08312 6.04347 3.24448 5.42298 3.4689 5.02348C3.67115 4.66345 3.93596 4.39863 4.46558 3.86901L4.62322 3.71138C5.15466 3.17993 5.42038 2.91421 5.70576 2.76987C6.27332 2.4828 6.94359 2.4828 7.51115 2.76987C7.79653 2.91421 8.06225 3.17993 8.59369 3.71138L8.78856 3.90625C9.13817 4.25585 9.31297 4.43065 9.42726 4.60643C9.85825 5.26932 9.85825 6.1239 9.42726 6.78679C9.31297 6.96257 9.13817 7.13738 8.78856 7.48698C8.67425 7.60129 8.61709 7.65845 8.56925 7.72526C8.39924 7.96269 8.34054 8.30695 8.42226 8.5873C8.44526 8.6662 8.47519 8.72854 8.53506 8.85323Z" stroke="#00205B" stroke-width="2" stroke-linecap="round" stroke-linejoin="round"/>
</svg>
