<svg width="16" height="17" viewBox="0 0 16 17" fill="none" xmlns="http://www.w3.org/2000/svg">
<path d="M15.8406 5.30007C15.8406 5.30007 15.6844 4.19695 15.2031 3.71257C14.5938 3.07507 13.9125 3.07195 13.6 3.03445C11.3625 2.87195 8.00313 2.87195 8.00313 2.87195H7.99687C7.99687 2.87195 4.6375 2.87195 2.4 3.03445C2.0875 3.07195 1.40625 3.07507 0.796875 3.71257C0.315625 4.19695 0.1625 5.30007 0.1625 5.30007C0.1625 5.30007 0 6.59695 0 7.8907V9.1032C0 10.3969 0.159375 11.6938 0.159375 11.6938C0.159375 11.6938 0.315625 12.7969 0.79375 13.2813C1.40313 13.9188 2.20313 13.8969 2.55938 13.9657C3.84063 14.0876 8 14.1251 8 14.1251C8 14.1251 11.3625 14.1188 13.6 13.9594C13.9125 13.9219 14.5938 13.9188 15.2031 13.2813C15.6844 12.7969 15.8406 11.6938 15.8406 11.6938C15.8406 11.6938 16 10.4001 16 9.1032V7.8907C16 6.59695 15.8406 5.30007 15.8406 5.30007ZM6.34688 10.5751V6.0782L10.6687 8.33445L6.34688 10.5751Z" fill="#AE7029"/>
</svg>
