<svg width="25" height="24" viewBox="0 0 25 24" fill="none" xmlns="http://www.w3.org/2000/svg">
<path d="M21.6548 18L15.0119 12M9.29764 12L2.65482 18M2.15479 7L10.3197 12.7154C10.9809 13.1783 11.3115 13.4097 11.671 13.4993C11.9887 13.5785 12.3209 13.5785 12.6385 13.4993C12.9981 13.4097 13.3287 13.1783 13.9899 12.7154L22.1548 7M6.95479 20H17.3548C19.0349 20 19.875 20 20.5168 19.673C21.0812 19.3854 21.5402 18.9265 21.8278 18.362C22.1548 17.7202 22.1548 16.8802 22.1548 15.2V8.8C22.1548 7.11984 22.1548 6.27976 21.8278 5.63803C21.5402 5.07354 21.0812 4.6146 20.5168 4.32698C19.875 4 19.0349 4 17.3548 4H6.95479C5.27463 4 4.43455 4 3.79281 4.32698C3.22833 4.6146 2.76939 5.07354 2.48177 5.63803C2.15479 6.27976 2.15479 7.11984 2.15479 8.8V15.2C2.15479 16.8802 2.15479 17.7202 2.48177 18.362C2.76939 18.9265 3.22833 19.3854 3.79281 19.673C4.43455 20 5.27463 20 6.95479 20Z" stroke="#00205B" stroke-width="2" stroke-linecap="round" stroke-linejoin="round"/>
</svg>
